<?xml version="1.0" encoding="utf-8"?>
<!-- Generator: Adobe Illustrator 22.1.0, SVG Export Plug-In . SVG Version: 6.00 Build 0)  -->
<svg version="1.1" id="Layer_1" xmlns="http://www.w3.org/2000/svg" xmlns:xlink="http://www.w3.org/1999/xlink" x="0px" y="0px"
	 viewBox="0 0 200 200" style="enable-background:new 0 0 200 200;" xml:space="preserve">
<style type="text/css">
	.st0{fill:#010101;}
	.st1{fill:#098CF3;}
</style>
<g id="ujycFO_1_">
	<g>
		<path class="st0" d="M12.3,132.5c3.6,0,7.3,0,10.9,0c1,0,1.4,0.2,1.5,1.3c1,6.6,4.2,11.7,10.4,14.6c3.2,1.5,6.6,2.5,10.1,2.9
			c6,0.7,11.9,0.7,17.7-0.9c3.8-1,7.2-2.8,9.2-6.3c3.3-6.2,2.3-11.2-3.4-15.2c-3.7-2.6-7.8-4.2-12-5.7c-4.3-1.5-8.7-2.4-13.1-3.6
			c-7.5-2-15.3-3.2-22.5-6.2c-5.6-2.3-10.8-5-14-10.5C4.3,98.3,2.3,93.4,1.9,88c-0.5-6.9,0-13.6,3.1-19.9
			C8.9,60,15.5,54.9,23.8,51.9c9.2-3.4,18.8-4,28.5-3.6c6.7,0.2,13.3,1.3,19.5,3.9C83.5,57,90.3,65.9,93,78.1
			c0.5,2.1,0.7,4.3,0.8,6.5c0,0.6-0.1,0.8-0.7,0.8c-4.8,0-9.6,0.1-14.4-0.1c-4.5-0.1-8-2.3-10-6.3c-2.8-5.5-7.3-8.6-13.1-9.9
			c-6.4-1.5-12.8-1.6-19.2,0.1c-4.6,1.3-8.1,4-9.8,8.7c-1.8,5-0.4,9.1,3.9,12.2c3.9,2.8,8.4,4.3,13,5.3c10,2.3,19.8,5.1,29.6,7.9
			c4.6,1.3,9.2,3.1,13.2,6.1c5.9,4.4,9.7,10.1,11,17.3c1.6,8.5,0.7,16.8-3.1,24.7c-4.1,8.5-11.1,13.8-19.9,16.9
			c-8.9,3.1-18.2,3.9-27.6,3.7c-7-0.2-13.8-1-20.5-3.2c-9.9-3.4-17.6-9.4-22.3-18.9c-2.5-5.1-3.6-10.6-4-16.2c-0.1-0.8,0.2-1,1-1
			C4.8,132.6,8.5,132.5,12.3,132.5C12.3,132.5,12.3,132.5,12.3,132.5z"/>
		<path class="st1" d="M158.5,199.2c-2.7-1.5-5.1-3.4-7.6-5.2c-15.8-11.1-31.5-22.3-47.2-33.4c-0.9-0.7-1.1-1.1-0.5-2.1
			c2.5-4.2,4.2-8.7,5.1-13.5c0.2-1,0.5-1,1.2-0.4c5.5,3.9,10.9,7.8,16.4,11.7c0.4,0.3,0.8,0.5,1.5,0.9c-1-3-1.9-5.8-2.8-8.5
			c-3.4-10.2-6.8-20.4-10.2-30.6c-0.4-1.1,0.2-1.4,0.8-1.8c6.9-4.9,13.9-9.8,20.8-14.7c4-2.8,8-5.6,11.9-8.5
			c0.3-0.2,0.5-0.4,0.7-0.9c-0.7,0-1.5,0-2.2,0c-13.1,0-26.2,0-39.3,0c-1.3,0-1.6-0.4-1.6-1.6c-0.2-5-0.2-9.9-1.3-14.8
			C100.7,61.1,92.6,50,79,43.3c-0.8-0.4-1-0.8-0.7-1.7c4.5-13.4,9-26.9,13.4-40.3c0.1-0.4,0.2-0.9,0.6-1.3c0.4,0.3,0.5,0.8,0.6,1.2
			c6.2,18.6,12.4,37.3,18.6,55.9c2,5.9,4,11.8,5.9,17.8c0.3,1,0.9,1.1,1.8,1.1c25.6,0,51.2,0,76.8,0c1.2,0,2.5,0,4,0
			c-0.9,1-1.8,1.5-2.6,2.1c-13.5,9.6-26.9,19.1-40.4,28.6c-7.4,5.3-14.9,10.5-22.3,15.8c-0.8,0.6-1,1.1-0.7,2
			c4.9,14.5,9.7,29,14.6,43.6c3.3,10,6.6,20,10,30c0.1,0.3,0.3,0.6,0.1,1C158.6,199.1,158.5,199.2,158.5,199.2z"/>
		<path class="st1" d="M158.6,199.1c0.2,0.1,0.2,0.2,0.1,0.3c0,0-0.1-0.1-0.2-0.2C158.5,199.2,158.6,199.1,158.6,199.1z"/>
	</g>
</g>
</svg>
